# xmcd
#
# Track frame offsets: 
#        150
#        10840
#        21638
#        31870
#        41903
#        52948
#        65773
#        78663
#        89078
#        99735
#        109293
#        120283
#        131733
#        143905
#        154185
#        164658
#        178220
#        192415
#        204600
#        216617
#        232155
#        245215
#        257427
#        270965
#
# Disc length: 3771 seconds
#
# Revision: 1
# Processed by: cddbd v1.5.2PL0 Copyright (c) Steve Scherf et al.
# Submitted via: ExactAudioCopy v1.0b3
#
DISCID=740eb918
DTITLE=Reno and Smiley - Early Years 1951-59 CD4
DYEAR=2009
DGENRE=Bluegrass
TTITLE0=Brighter Mansion Over There
TTITLE1=He Will Forgive You
TTITLE2=Missile RIde
TTITLE3=Buggy Ride
TTITLE4=I Want To Know
TTITLE5=The New Jerusalem
TTITLE6=He's Not Ashamed Of You
TTITLE7=God's Record Book Of Life
TTITLE8=Pray
TTITLE9=Passing Of Time
TTITLE10=I'll Trade My Cross For A Crown
TTITLE11=Sailing Home
TTITLE12=Pretending
TTITLE13=I Wouldn't Change You If I Could
TTITLE14=Sockeye
TTITLE15=Money, Marbles And Chalk
TTITLE16=Dark As A Dungeon
TTITLE17=Gathering Flowers From The Hillside
TTITLE18=East Bound Freight Train
TTITLE19=Charlie Brooks And Nellie Adair
TTITLE20=Lonesome Wind Blues
TTITLE21=Mountain Rosa Lee
TTITLE22=She Has Forgotten
TTITLE23=Eight More Miles To Louisville
EXTD=
EXTT0=
EXTT1=
EXTT2=
EXTT3=
EXTT4=
EXTT5=
EXTT6=
EXTT7=
EXTT8=
EXTT9=
EXTT10=
EXTT11=
EXTT12=
EXTT13=
EXTT14=
EXTT15=
EXTT16=
EXTT17=
EXTT18=
EXTT19=
EXTT20=
EXTT21=
EXTT22=
EXTT23=
PLAYORDER=
